<svg width="85" height="36" viewBox="0 0 85 36" fill="none" xmlns="http://www.w3.org/2000/svg">
<path d="M34.4844 17.9453C34.4844 19.5703 34.2812 21.1406 33.875 22.6562C33.4688 24.1562 32.8906 25.5625 32.1406 26.875C31.4062 28.1719 30.5156 29.3594 29.4688 30.4375C28.4375 31.5156 27.2891 32.4375 26.0234 33.2031C24.7734 33.9688 23.4219 34.5625 21.9688 34.9844C20.5156 35.4062 19.0078 35.6172 17.4453 35.6172C15.8828 35.6172 14.375 35.4062 12.9219 34.9844C11.4688 34.5625 10.1094 33.9688 8.84375 33.2031C7.59375 32.4375 6.44531 31.5156 5.39844 30.4375C4.36719 29.3594 3.47656 28.1719 2.72656 26.875C1.99219 25.5625 1.42188 24.1562 1.01562 22.6562C0.609375 21.1406 0.40625 19.5703 0.40625 17.9453C0.40625 16.3203 0.609375 14.7578 1.01562 13.2578C1.42188 11.7422 1.99219 10.3359 2.72656 9.03906C3.47656 7.72656 4.36719 6.53125 5.39844 5.45312C6.44531 4.375 7.59375 3.45313 8.84375 2.6875C10.1094 1.92187 11.4688 1.32812 12.9219 0.90625C14.375 0.484375 15.8828 0.273438 17.4453 0.273438C19.0078 0.273438 20.5156 0.484375 21.9688 0.90625C23.4219 1.32812 24.7734 1.92187 26.0234 2.6875C27.2891 3.45313 28.4375 4.375 29.4688 5.45312C30.5156 6.53125 31.4062 7.72656 32.1406 9.03906C32.8906 10.3359 33.4688 11.7422 33.875 13.2578C34.2812 14.7578 34.4844 16.3203 34.4844 17.9453ZM32.7266 17.9453C32.7266 16.4922 32.5391 15.0859 32.1641 13.7266C31.8047 12.3672 31.2969 11.1016 30.6406 9.92969C29.9844 8.74219 29.1875 7.66406 28.25 6.69531C27.3125 5.72656 26.2812 4.89844 25.1562 4.21094C24.0312 3.52344 22.8125 2.99219 21.5 2.61719C20.2031 2.22656 18.8516 2.03125 17.4453 2.03125C16.0391 2.03125 14.6875 2.22656 13.3906 2.61719C12.0938 2.99219 10.875 3.52344 9.73438 4.21094C8.60938 4.89844 7.57812 5.72656 6.64062 6.69531C5.71875 7.66406 4.92188 8.74219 4.25 9.92969C3.59375 11.1016 3.07812 12.3672 2.70312 13.7266C2.34375 15.0859 2.16406 16.4922 2.16406 17.9453C2.16406 19.3984 2.34375 20.8047 2.70312 22.1641C3.07812 23.5234 3.59375 24.7969 4.25 25.9844C4.92188 27.1562 5.71875 28.2266 6.64062 29.1953C7.57812 30.1641 8.60938 30.9922 9.73438 31.6797C10.875 32.3672 12.0938 32.9062 13.3906 33.2969C14.6875 33.6719 16.0391 33.8594 17.4453 33.8594C18.8516 33.8594 20.2031 33.6719 21.5 33.2969C22.8125 32.9062 24.0312 32.3672 25.1562 31.6797C26.2812 30.9922 27.3125 30.1641 28.25 29.1953C29.1875 28.2266 29.9844 27.1562 30.6406 25.9844C31.2969 24.7969 31.8047 23.5312 32.1641 22.1875C32.5391 20.8281 32.7266 19.4141 32.7266 17.9453ZM49.5078 2.24219C49.5078 2.88281 49.3672 3.53125 49.0859 4.1875C48.8047 4.82812 48.5234 5.44531 48.2422 6.03906C48.2422 7.11719 48.2344 8.34375 48.2188 9.71875C48.2188 11.0781 48.2188 12.5078 48.2188 14.0078C48.2188 15.5078 48.2109 17.0391 48.1953 18.6016C48.1953 20.1641 48.1875 21.6875 48.1719 23.1719C48.1719 24.6406 48.1719 26.0234 48.1719 27.3203C48.1719 28.6172 48.1641 29.7578 48.1484 30.7422C48.1484 31.7266 48.1484 32.5078 48.1484 33.0859C48.1484 33.6641 48.1484 33.9688 48.1484 34C48.1484 34.25 48.0625 34.4609 47.8906 34.6328C47.7188 34.8047 47.5078 34.8906 47.2578 34.8906C47.0078 34.8906 46.7969 34.8047 46.625 34.6328C46.4688 34.4609 46.3906 34.25 46.3906 34C46.3906 33.9688 46.3906 33.5469 46.3906 32.7344C46.3906 31.9062 46.3906 30.8203 46.3906 29.4766C46.4062 28.1328 46.4141 26.6016 46.4141 24.8828C46.4141 23.1484 46.4141 21.3594 46.4141 19.5156C46.4297 17.6562 46.4375 15.8125 46.4375 13.9844C46.4531 12.1406 46.4609 10.4375 46.4609 8.875C45.6484 9.98437 44.7812 10.9922 43.8594 11.8984C42.9531 12.7891 42.1016 13.5625 41.3047 14.2188C40.5234 14.8594 39.8594 15.3672 39.3125 15.7422C38.7812 16.1016 38.4844 16.3047 38.4219 16.3516C38.25 16.4453 38.0938 16.4922 37.9531 16.4922C37.7344 16.4922 37.5312 16.4141 37.3438 16.2578C37.1562 16.0859 37.0625 15.8672 37.0625 15.6016C37.0625 15.2891 37.2031 15.0391 37.4844 14.8516C37.5 14.8359 37.6641 14.7266 37.9766 14.5234C38.2891 14.3047 38.6953 14.0078 39.1953 13.6328C39.6953 13.2422 40.2656 12.7734 40.9062 12.2266C41.5469 11.6641 42.1953 11.0469 42.8516 10.375C43.5234 9.6875 44.1719 8.94531 44.7969 8.14844C45.4219 7.33594 45.9766 6.48438 46.4609 5.59375C46.4609 5.34375 46.4609 5.07031 46.4609 4.77344C46.4609 4.46094 46.4609 4.15625 46.4609 3.85938C46.4609 3.54688 46.4609 3.25781 46.4609 2.99219C46.4609 2.71094 46.4609 2.47656 46.4609 2.28906C46.4922 1.58594 46.6328 1.07812 46.8828 0.765625C47.1484 0.4375 47.5078 0.273438 47.9609 0.273438C48.4141 0.273438 48.7812 0.46875 49.0625 0.859375C49.3594 1.25 49.5078 1.71094 49.5078 2.24219ZM65.1875 34.4453C65.0156 34.7422 64.7656 34.8906 64.4375 34.8906C64.1719 34.8906 63.9531 34.7969 63.7812 34.6094C63.625 34.4219 63.5469 34.2188 63.5469 34C63.5469 33.8594 63.5703 33.7422 63.6172 33.6484C63.6641 33.5547 63.7109 33.4688 63.7578 33.3906L82.8125 0.765625C82.8906 0.625 83 0.515625 83.1406 0.4375C83.2969 0.359375 83.4453 0.320312 83.5859 0.320312C83.8516 0.320312 84.0625 0.414062 84.2188 0.601562C84.375 0.789062 84.4531 0.992188 84.4531 1.21094C84.4531 1.32031 84.4219 1.4375 84.3594 1.5625C84.3125 1.6875 84.2656 1.78906 84.2188 1.86719L65.1875 34.4453Z" fill="#B7CCA2"/>
</svg>
