<svg width="107" height="37" viewBox="0 0 107 37" fill="none" xmlns="http://www.w3.org/2000/svg">
<path d="M34.8176 18.9453C34.8176 20.5703 34.6145 22.1406 34.2083 23.6562C33.802 25.1562 33.2239 26.5625 32.4739 27.875C31.7395 29.1719 30.8489 30.3594 29.802 31.4375C28.7708 32.5156 27.6223 33.4375 26.3567 34.2031C25.1067 34.9688 23.7551 35.5625 22.302 35.9844C20.8489 36.4062 19.3411 36.6172 17.7786 36.6172C16.2161 36.6172 14.7083 36.4062 13.2551 35.9844C11.802 35.5625 10.4426 34.9688 9.177 34.2031C7.927 33.4375 6.77856 32.5156 5.73169 31.4375C4.70044 30.3594 3.80981 29.1719 3.05981 27.875C2.32544 26.5625 1.75513 25.1562 1.34888 23.6562C0.942627 22.1406 0.739502 20.5703 0.739502 18.9453C0.739502 17.3203 0.942627 15.7578 1.34888 14.2578C1.75513 12.7422 2.32544 11.3359 3.05981 10.0391C3.80981 8.72656 4.70044 7.53125 5.73169 6.45312C6.77856 5.375 7.927 4.45313 9.177 3.6875C10.4426 2.92187 11.802 2.32812 13.2551 1.90625C14.7083 1.48438 16.2161 1.27344 17.7786 1.27344C19.3411 1.27344 20.8489 1.48438 22.302 1.90625C23.7551 2.32812 25.1067 2.92187 26.3567 3.6875C27.6223 4.45313 28.7708 5.375 29.802 6.45312C30.8489 7.53125 31.7395 8.72656 32.4739 10.0391C33.2239 11.3359 33.802 12.7422 34.2083 14.2578C34.6145 15.7578 34.8176 17.3203 34.8176 18.9453ZM33.0598 18.9453C33.0598 17.4922 32.8723 16.0859 32.4973 14.7266C32.1379 13.3672 31.6301 12.1016 30.9739 10.9297C30.3176 9.74219 29.5208 8.66406 28.5833 7.69531C27.6458 6.72656 26.6145 5.89844 25.4895 5.21094C24.3645 4.52344 23.1458 3.99219 21.8333 3.61719C20.5364 3.22656 19.1848 3.03125 17.7786 3.03125C16.3723 3.03125 15.0208 3.22656 13.7239 3.61719C12.427 3.99219 11.2083 4.52344 10.0676 5.21094C8.94263 5.89844 7.91138 6.72656 6.97388 7.69531C6.052 8.66406 5.25513 9.74219 4.58325 10.9297C3.927 12.1016 3.41138 13.3672 3.03638 14.7266C2.677 16.0859 2.49731 17.4922 2.49731 18.9453C2.49731 20.3984 2.677 21.8047 3.03638 23.1641C3.41138 24.5234 3.927 25.7969 4.58325 26.9844C5.25513 28.1562 6.052 29.2266 6.97388 30.1953C7.91138 31.1641 8.94263 31.9922 10.0676 32.6797C11.2083 33.3672 12.427 33.9062 13.7239 34.2969C15.0208 34.6719 16.3723 34.8594 17.7786 34.8594C19.1848 34.8594 20.5364 34.6719 21.8333 34.2969C23.1458 33.9062 24.3645 33.3672 25.4895 32.6797C26.6145 31.9922 27.6458 31.1641 28.5833 30.1953C29.5208 29.2266 30.3176 28.1562 30.9739 26.9844C31.6301 25.7969 32.1379 24.5312 32.4973 23.1875C32.8723 21.8281 33.0598 20.4141 33.0598 18.9453ZM77.5676 31.0156C77.5364 31.0469 77.4114 31.1797 77.1926 31.4141C76.9739 31.6484 76.6458 31.9375 76.2083 32.2812C75.7864 32.6094 75.2551 32.9688 74.6145 33.3594C73.9895 33.75 73.2473 34.1094 72.3879 34.4375C71.5286 34.75 70.552 35.0156 69.4583 35.2344C68.3801 35.4531 67.177 35.5625 65.8489 35.5625C64.6926 35.5625 63.5364 35.4688 62.3801 35.2812C61.2395 35.0938 60.0989 34.8594 58.9583 34.5781C57.8333 34.2969 56.7239 33.9844 55.6301 33.6406C54.5364 33.2969 53.4661 32.9688 52.4192 32.6562C50.4192 33.625 48.5051 34.3359 46.677 34.7891C44.8645 35.2422 43.2239 35.4688 41.7551 35.4688C40.7864 35.4688 39.9504 35.3672 39.2473 35.1641C38.5598 34.9766 37.9895 34.7266 37.5364 34.4141C37.0833 34.0859 36.7473 33.7188 36.5286 33.3125C36.3254 32.8906 36.2239 32.4609 36.2239 32.0234C36.2239 31.6016 36.3333 31.1797 36.552 30.7578C36.7708 30.3359 37.0989 29.9609 37.5364 29.6328C37.9739 29.2891 38.5286 29.0078 39.2004 28.7891C39.8723 28.5703 40.6614 28.4609 41.5676 28.4609C42.2395 28.4609 42.9739 28.5234 43.7708 28.6484C44.5833 28.7734 45.4348 28.9453 46.3254 29.1641C47.2317 29.3672 48.177 29.6094 49.1614 29.8906C50.1614 30.1562 51.177 30.4453 52.2083 30.7578C53.2864 30.1953 54.3801 29.5469 55.4895 28.8125C56.5989 28.0625 57.6614 27.2422 58.677 26.3516C59.7083 25.4453 60.6692 24.4766 61.5598 23.4453C62.4504 22.3984 63.2239 21.2969 63.8801 20.1406C64.5364 18.9688 65.052 17.7422 65.427 16.4609C65.8176 15.1797 66.0129 13.8516 66.0129 12.4766C66.0129 10.8203 65.7395 9.33594 65.1926 8.02344C64.6458 6.69531 63.8723 5.57813 62.8723 4.67188C61.8723 3.75 60.6692 3.04688 59.2629 2.5625C57.8723 2.07812 56.3254 1.83594 54.6223 1.83594C53.7629 1.83594 52.8567 1.92969 51.9036 2.11719C50.9661 2.30469 50.0364 2.58594 49.1145 2.96094C48.1926 3.32031 47.3098 3.77344 46.4661 4.32031C45.6379 4.86719 44.9036 5.5 44.2629 6.21875C43.6223 6.9375 43.1145 7.74219 42.7395 8.63281C42.3645 9.50781 42.177 10.4687 42.177 11.5156C42.177 12.1875 42.2395 12.8125 42.3645 13.3906C42.4895 13.9688 42.6301 14.4844 42.7864 14.9375C42.9426 15.375 43.0833 15.7266 43.2083 15.9922C43.3489 16.2578 43.4348 16.4141 43.4661 16.4609C43.5442 16.6172 43.5833 16.7656 43.5833 16.9062C43.5833 17.125 43.5051 17.3281 43.3489 17.5156C43.1926 17.7031 42.9739 17.7969 42.6926 17.7969C42.3489 17.7969 42.0911 17.6484 41.9192 17.3516C41.9192 17.3359 41.8411 17.1797 41.6848 16.8828C41.5286 16.5703 41.3567 16.1484 41.1692 15.6172C40.9817 15.0859 40.8098 14.4688 40.6536 13.7656C40.4973 13.0625 40.4192 12.3047 40.4192 11.4922C40.4192 10.3203 40.6145 9.22656 41.0051 8.21094C41.4114 7.17969 41.9583 6.24219 42.6458 5.39844C43.3333 4.53906 44.1379 3.78125 45.0598 3.125C45.9817 2.46875 46.9739 1.91406 48.0364 1.46094C49.0989 0.992188 50.2004 0.640625 51.3411 0.40625C52.4817 0.171875 53.6067 0.0546875 54.7161 0.0546875C56.6536 0.0546875 58.427 0.351563 60.0364 0.945312C61.6458 1.52344 63.0208 2.35156 64.1614 3.42969C65.3176 4.50781 66.2083 5.8125 66.8333 7.34375C67.4739 8.875 67.7942 10.5859 67.7942 12.4766C67.7942 14.2578 67.4739 16.0391 66.8333 17.8203C66.1926 19.6016 65.2864 21.3125 64.1145 22.9531C62.9583 24.5938 61.5676 26.1406 59.9426 27.5938C58.3333 29.0312 56.5598 30.3203 54.6223 31.4609C55.6692 31.7734 56.7083 32.0781 57.7395 32.375C58.7708 32.6562 59.7551 32.9062 60.6926 33.125C61.6458 33.3281 62.552 33.4922 63.4114 33.6172C64.2708 33.7422 65.0676 33.8047 65.802 33.8047C67.5676 33.8047 69.0911 33.6094 70.3723 33.2188C71.6692 32.8281 72.7395 32.3984 73.5833 31.9297C74.4426 31.4453 75.0833 31 75.5051 30.5938C75.927 30.1875 76.1536 29.9609 76.1848 29.9141C76.3723 29.6953 76.6067 29.5859 76.8879 29.5859C77.1379 29.5859 77.3411 29.6797 77.4973 29.8672C77.6692 30.0391 77.7551 30.2422 77.7551 30.4766C77.7551 30.6641 77.6926 30.8438 77.5676 31.0156ZM49.7942 31.8828C48.2317 31.4297 46.7473 31.0469 45.3411 30.7344C43.9504 30.4062 42.7473 30.2422 41.7317 30.2422C41.1379 30.2422 40.6067 30.2969 40.1379 30.4062C39.6848 30.5156 39.2942 30.6562 38.9661 30.8281C38.6536 30.9844 38.4114 31.1719 38.2395 31.3906C38.0676 31.6094 37.9817 31.8203 37.9817 32.0234C37.9817 32.2109 38.052 32.4062 38.1926 32.6094C38.3333 32.8125 38.552 32.9922 38.8489 33.1484C39.1614 33.3047 39.552 33.4375 40.0208 33.5469C40.4895 33.6406 41.0598 33.6875 41.7317 33.6875C42.8723 33.6875 44.1223 33.5391 45.4817 33.2422C46.8567 32.9453 48.2942 32.4922 49.7942 31.8828ZM87.6926 35.4453C87.5208 35.7422 87.2708 35.8906 86.9426 35.8906C86.677 35.8906 86.4583 35.7969 86.2864 35.6094C86.1301 35.4219 86.052 35.2188 86.052 35C86.052 34.8594 86.0754 34.7422 86.1223 34.6484C86.1692 34.5547 86.2161 34.4688 86.2629 34.3906L105.318 1.76562C105.396 1.625 105.505 1.51562 105.646 1.4375C105.802 1.35938 105.95 1.32031 106.091 1.32031C106.357 1.32031 106.568 1.41406 106.724 1.60156C106.88 1.78906 106.958 1.99219 106.958 2.21094C106.958 2.32031 106.927 2.4375 106.865 2.5625C106.818 2.6875 106.771 2.78906 106.724 2.86719L87.6926 35.4453Z" fill="#B7CCA2"/>
</svg>
