<svg width="98" height="37" viewBox="0 0 98 37" fill="none" xmlns="http://www.w3.org/2000/svg">
<path d="M34.1511 17.9453C34.1511 19.5703 33.948 21.1406 33.5417 22.6562C33.1355 24.1562 32.5574 25.5625 31.8074 26.875C31.073 28.1719 30.1824 29.3594 29.1355 30.4375C28.1042 31.5156 26.9558 32.4375 25.6902 33.2031C24.4402 33.9688 23.0886 34.5625 21.6355 34.9844C20.1824 35.4062 18.6746 35.6172 17.1121 35.6172C15.5496 35.6172 14.0417 35.4062 12.5886 34.9844C11.1355 34.5625 9.77612 33.9688 8.5105 33.2031C7.2605 32.4375 6.11206 31.5156 5.06519 30.4375C4.03394 29.3594 3.14331 28.1719 2.39331 26.875C1.65894 25.5625 1.08862 24.1562 0.682373 22.6562C0.276123 21.1406 0.072998 19.5703 0.072998 17.9453C0.072998 16.3203 0.276123 14.7578 0.682373 13.2578C1.08862 11.7422 1.65894 10.3359 2.39331 9.03906C3.14331 7.72656 4.03394 6.53125 5.06519 5.45312C6.11206 4.375 7.2605 3.45313 8.5105 2.6875C9.77612 1.92187 11.1355 1.32812 12.5886 0.90625C14.0417 0.484375 15.5496 0.273438 17.1121 0.273438C18.6746 0.273438 20.1824 0.484375 21.6355 0.90625C23.0886 1.32812 24.4402 1.92187 25.6902 2.6875C26.9558 3.45313 28.1042 4.375 29.1355 5.45312C30.1824 6.53125 31.073 7.72656 31.8074 9.03906C32.5574 10.3359 33.1355 11.7422 33.5417 13.2578C33.948 14.7578 34.1511 16.3203 34.1511 17.9453ZM32.3933 17.9453C32.3933 16.4922 32.2058 15.0859 31.8308 13.7266C31.4714 12.3672 30.9636 11.1016 30.3074 9.92969C29.6511 8.74219 28.8542 7.66406 27.9167 6.69531C26.9792 5.72656 25.948 4.89844 24.823 4.21094C23.698 3.52344 22.4792 2.99219 21.1667 2.61719C19.8699 2.22656 18.5183 2.03125 17.1121 2.03125C15.7058 2.03125 14.3542 2.22656 13.0574 2.61719C11.7605 2.99219 10.5417 3.52344 9.40112 4.21094C8.27612 4.89844 7.24487 5.72656 6.30737 6.69531C5.3855 7.66406 4.58862 8.74219 3.91675 9.92969C3.2605 11.1016 2.74487 12.3672 2.36987 13.7266C2.0105 15.0859 1.83081 16.4922 1.83081 17.9453C1.83081 19.3984 2.0105 20.8047 2.36987 22.1641C2.74487 23.5234 3.2605 24.7969 3.91675 25.9844C4.58862 27.1562 5.3855 28.2266 6.30737 29.1953C7.24487 30.1641 8.27612 30.9922 9.40112 31.6797C10.5417 32.3672 11.7605 32.9062 13.0574 33.2969C14.3542 33.6719 15.7058 33.8594 17.1121 33.8594C18.5183 33.8594 19.8699 33.6719 21.1667 33.2969C22.4792 32.9062 23.698 32.3672 24.823 31.6797C25.948 30.9922 26.9792 30.1641 27.9167 29.1953C28.8542 28.2266 29.6511 27.1562 30.3074 25.9844C30.9636 24.7969 31.4714 23.5312 31.8308 22.1875C32.2058 20.8281 32.3933 19.4141 32.3933 17.9453ZM54.9167 16.3516C55.9792 16.7109 56.9871 17.1719 57.9402 17.7344C58.9089 18.2812 59.7605 18.9375 60.4949 19.7031C61.2292 20.4531 61.8074 21.3281 62.2292 22.3281C62.6667 23.3125 62.8855 24.4219 62.8855 25.6562C62.8855 26.9531 62.6902 28.125 62.2996 29.1719C61.9089 30.2031 61.3777 31.1172 60.7058 31.9141C60.0339 32.7109 59.2527 33.3984 58.3621 33.9766C57.4714 34.5391 56.5261 35 55.5261 35.3594C54.5261 35.7188 53.4949 35.9844 52.4324 36.1562C51.3855 36.3281 50.3621 36.4141 49.3621 36.4141C47.9871 36.4141 46.7136 36.2969 45.5417 36.0625C44.3855 35.8438 43.3386 35.5625 42.4011 35.2188C41.4792 34.8906 40.6667 34.5312 39.9636 34.1406C39.2605 33.75 38.6667 33.3828 38.1824 33.0391C37.7136 32.6953 37.3542 32.4062 37.1042 32.1719C36.8699 31.9219 36.7449 31.7891 36.7292 31.7734C36.573 31.6172 36.4949 31.4219 36.4949 31.1875C36.4949 30.9375 36.5808 30.7266 36.7527 30.5547C36.9246 30.3828 37.1277 30.2969 37.3621 30.2969C37.6277 30.2969 37.8464 30.3906 38.0183 30.5781C38.0183 30.5781 38.1199 30.6797 38.323 30.8828C38.5417 31.0703 38.8621 31.3203 39.2839 31.6328C39.7058 31.9297 40.2371 32.2578 40.8777 32.6172C41.5183 32.9609 42.2605 33.2891 43.1042 33.6016C43.948 33.8984 44.8933 34.1484 45.9402 34.3516C46.9871 34.5547 48.1355 34.6562 49.3855 34.6562C51.0417 34.6562 52.5808 34.4531 54.0027 34.0469C55.4402 33.6562 56.6824 33.0781 57.7292 32.3125C58.7917 31.5469 59.6199 30.6094 60.2136 29.5C60.8074 28.375 61.1042 27.1016 61.1042 25.6797C61.1042 24.5234 60.8699 23.5 60.4011 22.6094C59.948 21.7188 59.323 20.9453 58.5261 20.2891C57.7292 19.6172 56.7996 19.0547 55.7371 18.6016C54.6746 18.1484 53.5417 17.7812 52.3386 17.5C51.3542 17.8594 50.2996 18.1562 49.1746 18.3906C48.0652 18.6094 46.9714 18.7188 45.8933 18.7188C44.6433 18.7188 43.7449 18.5703 43.198 18.2734C42.6667 17.9766 42.4011 17.5781 42.4011 17.0781C42.4011 16.9688 42.4324 16.8047 42.4949 16.5859C42.5574 16.3672 42.7371 16.1484 43.0339 15.9297C43.3308 15.7109 43.7839 15.5234 44.3933 15.3672C45.0027 15.2109 45.8542 15.1328 46.948 15.1328C47.698 15.1328 48.5261 15.1719 49.4324 15.25C50.3386 15.3281 51.2839 15.4688 52.2683 15.6719C53.4089 15.2188 54.4089 14.6875 55.2683 14.0781C56.1433 13.4688 56.8699 12.8359 57.448 12.1797C58.0261 11.5078 58.4558 10.8359 58.7371 10.1641C59.0339 9.49219 59.1824 8.86719 59.1824 8.28906C59.1824 7.28906 58.9714 6.40625 58.5496 5.64062C58.1277 4.85938 57.573 4.20313 56.8855 3.67188C56.198 3.14062 55.4011 2.74219 54.4949 2.47656C53.5886 2.19531 52.6589 2.05469 51.7058 2.05469C50.3621 2.05469 49.1121 2.21094 47.9558 2.52344C46.7996 2.83594 45.7527 3.22656 44.8152 3.69531C43.8777 4.16406 43.0417 4.67969 42.3074 5.24219C41.5886 5.78906 40.9871 6.29688 40.5027 6.76562C40.0183 7.23438 39.6433 7.63281 39.3777 7.96094C39.1277 8.27344 39.0027 8.42969 39.0027 8.42969C38.9246 8.55469 38.8152 8.64844 38.6746 8.71094C38.5496 8.77344 38.4167 8.80469 38.2761 8.80469C38.0261 8.80469 37.8152 8.71875 37.6433 8.54688C37.4871 8.35938 37.4089 8.15625 37.4089 7.9375C37.4089 7.75 37.4636 7.57813 37.573 7.42188C37.6042 7.39063 37.7605 7.1875 38.0417 6.8125C38.3386 6.4375 38.7605 5.99219 39.3074 5.47656C39.8542 4.94531 40.5183 4.375 41.2996 3.76562C42.0964 3.15625 43.0105 2.59375 44.0417 2.07812C45.073 1.5625 46.2214 1.13281 47.4871 0.789062C48.7527 0.445312 50.1355 0.273438 51.6355 0.273438C52.8074 0.273438 53.948 0.445312 55.0574 0.789062C56.1667 1.13281 57.1589 1.64844 58.0339 2.33594C58.9089 3.00781 59.6121 3.84375 60.1433 4.84375C60.6746 5.84375 60.9402 7 60.9402 8.3125C60.9402 9.04687 60.7917 9.78906 60.4949 10.5391C60.2136 11.2734 59.8074 11.9922 59.2761 12.6953C58.7605 13.3828 58.1277 14.0391 57.3777 14.6641C56.6433 15.2891 55.823 15.8516 54.9167 16.3516ZM49.6199 16.7031C49.0105 16.6094 48.3386 16.5625 47.6042 16.5625C46.9792 16.5625 46.3933 16.6016 45.8464 16.6797C45.2996 16.7578 44.9089 16.8594 44.6746 16.9844C44.8308 17.0625 45.0339 17.1172 45.2839 17.1484C45.5339 17.1641 45.8152 17.1719 46.1277 17.1719C46.6746 17.1719 47.2605 17.1328 47.8855 17.0547C48.5261 16.9609 49.1042 16.8438 49.6199 16.7031ZM77.7449 34.4453C77.573 34.7422 77.323 34.8906 76.9949 34.8906C76.7292 34.8906 76.5105 34.7969 76.3386 34.6094C76.1824 34.4219 76.1042 34.2188 76.1042 34C76.1042 33.8594 76.1277 33.7422 76.1746 33.6484C76.2214 33.5547 76.2683 33.4688 76.3152 33.3906L95.3699 0.765625C95.448 0.625 95.5574 0.515625 95.698 0.4375C95.8542 0.359375 96.0027 0.320312 96.1433 0.320312C96.4089 0.320312 96.6199 0.414062 96.7761 0.601562C96.9324 0.789062 97.0105 0.992188 97.0105 1.21094C97.0105 1.32031 96.9792 1.4375 96.9167 1.5625C96.8699 1.6875 96.823 1.78906 96.7761 1.86719L77.7449 34.4453Z" fill="#B7CCA2"/>
</svg>
