<svg width="108" height="38" viewBox="0 0 108 38" fill="none" xmlns="http://www.w3.org/2000/svg">
<path d="M34.4844 19.9453C34.4844 21.5703 34.2812 23.1406 33.875 24.6562C33.4688 26.1562 32.8906 27.5625 32.1406 28.875C31.4062 30.1719 30.5156 31.3594 29.4688 32.4375C28.4375 33.5156 27.2891 34.4375 26.0234 35.2031C24.7734 35.9688 23.4219 36.5625 21.9688 36.9844C20.5156 37.4062 19.0078 37.6172 17.4453 37.6172C15.8828 37.6172 14.375 37.4062 12.9219 36.9844C11.4688 36.5625 10.1094 35.9688 8.84375 35.2031C7.59375 34.4375 6.44531 33.5156 5.39844 32.4375C4.36719 31.3594 3.47656 30.1719 2.72656 28.875C1.99219 27.5625 1.42188 26.1562 1.01562 24.6562C0.609375 23.1406 0.40625 21.5703 0.40625 19.9453C0.40625 18.3203 0.609375 16.7578 1.01562 15.2578C1.42188 13.7422 1.99219 12.3359 2.72656 11.0391C3.47656 9.72656 4.36719 8.53125 5.39844 7.45312C6.44531 6.375 7.59375 5.45313 8.84375 4.6875C10.1094 3.92187 11.4688 3.32812 12.9219 2.90625C14.375 2.48438 15.8828 2.27344 17.4453 2.27344C19.0078 2.27344 20.5156 2.48438 21.9688 2.90625C23.4219 3.32812 24.7734 3.92187 26.0234 4.6875C27.2891 5.45313 28.4375 6.375 29.4688 7.45312C30.5156 8.53125 31.4062 9.72656 32.1406 11.0391C32.8906 12.3359 33.4688 13.7422 33.875 15.2578C34.2812 16.7578 34.4844 18.3203 34.4844 19.9453ZM32.7266 19.9453C32.7266 18.4922 32.5391 17.0859 32.1641 15.7266C31.8047 14.3672 31.2969 13.1016 30.6406 11.9297C29.9844 10.7422 29.1875 9.66406 28.25 8.69531C27.3125 7.72656 26.2812 6.89844 25.1562 6.21094C24.0312 5.52344 22.8125 4.99219 21.5 4.61719C20.2031 4.22656 18.8516 4.03125 17.4453 4.03125C16.0391 4.03125 14.6875 4.22656 13.3906 4.61719C12.0938 4.99219 10.875 5.52344 9.73438 6.21094C8.60938 6.89844 7.57812 7.72656 6.64062 8.69531C5.71875 9.66406 4.92188 10.7422 4.25 11.9297C3.59375 13.1016 3.07812 14.3672 2.70312 15.7266C2.34375 17.0859 2.16406 18.4922 2.16406 19.9453C2.16406 21.3984 2.34375 22.8047 2.70312 24.1641C3.07812 25.5234 3.59375 26.7969 4.25 27.9844C4.92188 29.1562 5.71875 30.2266 6.64062 31.1953C7.57812 32.1641 8.60938 32.9922 9.73438 33.6797C10.875 34.3672 12.0938 34.9062 13.3906 35.2969C14.6875 35.6719 16.0391 35.8594 17.4453 35.8594C18.8516 35.8594 20.2031 35.6719 21.5 35.2969C22.8125 34.9062 24.0312 34.3672 25.1562 33.6797C26.2812 32.9922 27.3125 32.1641 28.25 31.1953C29.1875 30.2266 29.9844 29.1562 30.6406 27.9844C31.2969 26.7969 31.8047 25.5312 32.1641 24.1875C32.5391 22.8281 32.7266 21.4141 32.7266 19.9453ZM73.8594 25.9922C73.8438 26.2422 73.75 26.4453 73.5781 26.6016C73.4062 26.7578 73.2031 26.8359 72.9688 26.8359C72.9219 26.8359 72.6719 26.8281 72.2188 26.8125C71.7656 26.7812 71.1328 26.7578 70.3203 26.7422C69.5234 26.7109 68.5547 26.6875 67.4141 26.6719C66.2734 26.6406 65 26.6172 63.5938 26.6016C63.5625 28.3672 63.5391 30.1016 63.5234 31.8047C63.5234 33.5078 63.5234 35.125 63.5234 36.6562C63.5234 36.9062 63.4375 37.1172 63.2656 37.2891C63.0938 37.4609 62.8828 37.5469 62.6328 37.5469C62.3828 37.5469 62.1719 37.4609 62 37.2891C61.8438 37.1328 61.7656 36.9375 61.7656 36.7031C61.7656 36.4531 61.7656 36.0234 61.7656 35.4141C61.7656 34.7891 61.7656 34.0312 61.7656 33.1406C61.7812 32.25 61.7891 31.25 61.7891 30.1406C61.8047 29.0312 61.8203 27.8516 61.8359 26.6016C60.0703 26.6016 58.1797 26.6172 56.1641 26.6484C54.1484 26.6797 52.0312 26.7422 49.8125 26.8359C47.7969 26.9141 45.7422 27.0234 43.6484 27.1641C41.5547 27.3047 39.4219 27.4844 37.25 27.7031C37.0156 27.7031 36.8047 27.625 36.6172 27.4688C36.4453 27.3125 36.3594 27.1016 36.3594 26.8359C36.3594 26.4766 36.5234 26.2109 36.8516 26.0391C36.8672 26.0234 37.2422 25.8125 37.9766 25.4062C38.7266 25 39.7266 24.3984 40.9766 23.6016C42.2266 22.8047 43.6875 21.8203 45.3594 20.6484C47.0312 19.4766 48.8125 18.125 50.7031 16.5938C52.5938 15.0625 54.5391 13.3516 56.5391 11.4609C58.5547 9.57031 60.5312 7.50781 62.4688 5.27344C62.5156 4.72656 62.5625 4.25781 62.6094 3.86719C62.6719 3.47656 62.7422 3.1875 62.8203 3C62.9922 2.5 63.1797 2.10156 63.3828 1.80469C63.5859 1.50781 63.7891 1.28906 63.9922 1.14844C64.1953 0.992187 64.3828 0.890625 64.5547 0.84375C64.7422 0.796875 64.8984 0.773438 65.0234 0.773438C65.4453 0.773438 65.7969 0.921875 66.0781 1.21875C66.375 1.51563 66.5234 1.89063 66.5234 2.34375C66.5234 2.64063 66.4453 2.94531 66.2891 3.25781C66.1328 3.57031 65.9375 3.88281 65.7031 4.19531C65.4688 4.50781 65.2109 4.82031 64.9297 5.13281C64.6641 5.42969 64.4141 5.71875 64.1797 6C64.1016 6.95313 64.0312 8.11719 63.9688 9.49219C63.9219 10.8672 63.875 12.375 63.8281 14.0156C63.7812 15.6562 63.7344 17.3984 63.6875 19.2422C63.6562 21.0859 63.6328 22.9453 63.6172 24.8203C65.0234 24.8359 66.2969 24.8594 67.4375 24.8906C68.5938 24.9062 69.5781 24.9297 70.3906 24.9609C71.2188 24.9766 71.8594 25 72.3125 25.0312C72.7656 25.0469 73 25.0547 73.0156 25.0547C73.2812 25.0703 73.4844 25.1719 73.625 25.3594C73.7812 25.5312 73.8594 25.7422 73.8594 25.9922ZM62.2812 8.13281C60.3125 10.2891 58.3203 12.2812 56.3047 14.1094C54.2891 15.9219 52.3516 17.5625 50.4922 19.0312C48.6328 20.4844 46.8984 21.7656 45.2891 22.875C43.6953 23.9688 42.3125 24.875 41.1406 25.5938C43.0312 25.4375 44.9062 25.3125 46.7656 25.2188C48.625 25.125 50.4297 25.0469 52.1797 24.9844C53.9297 24.9219 55.6172 24.8828 57.2422 24.8672C58.8672 24.8359 60.3984 24.8203 61.8359 24.8203C61.8516 23.3984 61.875 21.9375 61.9062 20.4375C61.9375 18.9375 61.9688 17.4688 62 16.0312C62.0312 14.5781 62.0703 13.1797 62.1172 11.8359C62.1641 10.4922 62.2188 9.25781 62.2812 8.13281ZM87.7812 36.4453C87.6094 36.7422 87.3594 36.8906 87.0312 36.8906C86.7656 36.8906 86.5469 36.7969 86.375 36.6094C86.2188 36.4219 86.1406 36.2188 86.1406 36C86.1406 35.8594 86.1641 35.7422 86.2109 35.6484C86.2578 35.5547 86.3047 35.4688 86.3516 35.3906L105.406 2.76562C105.484 2.625 105.594 2.51562 105.734 2.4375C105.891 2.35938 106.039 2.32031 106.18 2.32031C106.445 2.32031 106.656 2.41406 106.812 2.60156C106.969 2.78906 107.047 2.99219 107.047 3.21094C107.047 3.32031 107.016 3.4375 106.953 3.5625C106.906 3.6875 106.859 3.78906 106.812 3.86719L87.7812 36.4453Z" fill="#9DB97E" fill-opacity="0.9"/>
</svg>
