<svg width="100" height="37" viewBox="0 0 100 37" fill="none" xmlns="http://www.w3.org/2000/svg">
<path d="M34.4844 17.9453C34.4844 19.5703 34.2812 21.1406 33.875 22.6562C33.4688 24.1562 32.8906 25.5625 32.1406 26.875C31.4062 28.1719 30.5156 29.3594 29.4688 30.4375C28.4375 31.5156 27.2891 32.4375 26.0234 33.2031C24.7734 33.9688 23.4219 34.5625 21.9688 34.9844C20.5156 35.4062 19.0078 35.6172 17.4453 35.6172C15.8828 35.6172 14.375 35.4062 12.9219 34.9844C11.4688 34.5625 10.1094 33.9688 8.84375 33.2031C7.59375 32.4375 6.44531 31.5156 5.39844 30.4375C4.36719 29.3594 3.47656 28.1719 2.72656 26.875C1.99219 25.5625 1.42188 24.1562 1.01562 22.6562C0.609375 21.1406 0.40625 19.5703 0.40625 17.9453C0.40625 16.3203 0.609375 14.7578 1.01562 13.2578C1.42188 11.7422 1.99219 10.3359 2.72656 9.03906C3.47656 7.72656 4.36719 6.53125 5.39844 5.45312C6.44531 4.375 7.59375 3.45313 8.84375 2.6875C10.1094 1.92187 11.4688 1.32812 12.9219 0.90625C14.375 0.484375 15.8828 0.273438 17.4453 0.273438C19.0078 0.273438 20.5156 0.484375 21.9688 0.90625C23.4219 1.32812 24.7734 1.92187 26.0234 2.6875C27.2891 3.45313 28.4375 4.375 29.4688 5.45312C30.5156 6.53125 31.4062 7.72656 32.1406 9.03906C32.8906 10.3359 33.4688 11.7422 33.875 13.2578C34.2812 14.7578 34.4844 16.3203 34.4844 17.9453ZM32.7266 17.9453C32.7266 16.4922 32.5391 15.0859 32.1641 13.7266C31.8047 12.3672 31.2969 11.1016 30.6406 9.92969C29.9844 8.74219 29.1875 7.66406 28.25 6.69531C27.3125 5.72656 26.2812 4.89844 25.1562 4.21094C24.0312 3.52344 22.8125 2.99219 21.5 2.61719C20.2031 2.22656 18.8516 2.03125 17.4453 2.03125C16.0391 2.03125 14.6875 2.22656 13.3906 2.61719C12.0938 2.99219 10.875 3.52344 9.73438 4.21094C8.60938 4.89844 7.57812 5.72656 6.64062 6.69531C5.71875 7.66406 4.92188 8.74219 4.25 9.92969C3.59375 11.1016 3.07812 12.3672 2.70312 13.7266C2.34375 15.0859 2.16406 16.4922 2.16406 17.9453C2.16406 19.3984 2.34375 20.8047 2.70312 22.1641C3.07812 23.5234 3.59375 24.7969 4.25 25.9844C4.92188 27.1562 5.71875 28.2266 6.64062 29.1953C7.57812 30.1641 8.60938 30.9922 9.73438 31.6797C10.875 32.3672 12.0938 32.9062 13.3906 33.2969C14.6875 33.6719 16.0391 33.8594 17.4453 33.8594C18.8516 33.8594 20.2031 33.6719 21.5 33.2969C22.8125 32.9062 24.0312 32.3672 25.1562 31.6797C26.2812 30.9922 27.3125 30.1641 28.25 29.1953C29.1875 28.2266 29.9844 27.1562 30.6406 25.9844C31.2969 24.7969 31.8047 23.5312 32.1641 22.1875C32.5391 20.8281 32.7266 19.4141 32.7266 17.9453ZM65.3281 25.1641C65.3281 26.5703 65.0938 27.8359 64.625 28.9609C64.1719 30.0703 63.5391 31.0625 62.7266 31.9375C61.9297 32.7969 60.9766 33.5312 59.8672 34.1406C58.7578 34.75 57.5547 35.25 56.2578 35.6406C54.9766 36.0469 53.6172 36.3359 52.1797 36.5078C50.7578 36.6953 49.3203 36.7891 47.8672 36.7891C46.3047 36.7891 44.8672 36.6562 43.5547 36.3906C42.2422 36.125 41.0703 35.7969 40.0391 35.4062C39.0078 35.0312 38.125 34.625 37.3906 34.1875C36.6562 33.7656 36.0859 33.3906 35.6797 33.0625C35.5859 32.9844 35.5234 32.8984 35.4922 32.8047C35.4453 32.6953 35.4219 32.5781 35.4219 32.4531C35.4219 32.2188 35.5078 32.0078 35.6797 31.8203C35.8516 31.6328 36.0625 31.5391 36.3125 31.5391C36.4375 31.5391 36.5469 31.5625 36.6406 31.6094C36.7344 31.6562 36.8359 31.7188 36.9453 31.7969C37.1953 31.9531 37.6016 32.2188 38.1641 32.5938C38.7422 32.9531 39.4844 33.3203 40.3906 33.6953C41.2969 34.0703 42.3594 34.3984 43.5781 34.6797C44.8125 34.9766 46.2031 35.125 47.75 35.125C49.0469 35.125 50.3359 35.0547 51.6172 34.9141C52.9141 34.7734 54.1484 34.5391 55.3203 34.2109C56.4922 33.8984 57.5781 33.4844 58.5781 32.9688C59.5781 32.4531 60.4453 31.8281 61.1797 31.0938C61.9297 30.3594 62.5078 29.5 62.9141 28.5156C63.3359 27.5312 63.5469 26.4141 63.5469 25.1641C63.5469 23.7109 63.2422 22.4453 62.6328 21.3672C62.0391 20.2891 61.1797 19.3906 60.0547 18.6719C58.9453 17.9375 57.5938 17.3906 56 17.0312C54.4219 16.6719 52.6484 16.4922 50.6797 16.4922C49.1797 16.4922 47.8906 16.5547 46.8125 16.6797C45.75 16.7891 44.8516 16.9297 44.1172 17.1016C43.3984 17.2578 42.8125 17.4219 42.3594 17.5938C41.9219 17.7656 41.5781 17.9141 41.3281 18.0391C41.2031 18.1016 41.0547 18.1641 40.8828 18.2266C40.7266 18.2891 40.5703 18.3203 40.4141 18.3203C40.1484 18.3203 39.9375 18.2344 39.7812 18.0625C39.625 17.875 39.5547 17.6562 39.5703 17.4062L40.2734 1.72656C40.2891 1.47656 40.3828 1.27344 40.5547 1.11719C40.7422 0.960937 40.9688 0.882812 41.2344 0.882812C41.4375 0.882812 41.7969 0.898438 42.3125 0.929688C42.8438 0.945313 43.4297 0.96875 44.0703 1C44.7266 1.01563 45.3906 1.03906 46.0625 1.07031C46.75 1.08594 47.3594 1.09375 47.8906 1.09375C49.875 1.09375 51.6953 1.05469 53.3516 0.976562C55.0234 0.882812 56.4688 0.789062 57.6875 0.695312C58.9062 0.601562 59.8672 0.515625 60.5703 0.4375C61.2734 0.34375 61.6562 0.296875 61.7188 0.296875C61.9375 0.296875 62.1328 0.375 62.3047 0.53125C62.4922 0.6875 62.5859 0.890625 62.5859 1.14062C62.5859 1.35937 62.5156 1.5625 62.375 1.75C62.2344 1.92187 62.0469 2.02344 61.8125 2.05469C61.7969 2.05469 61.4297 2.10156 60.7109 2.19531C59.9922 2.27344 59.0078 2.36719 57.7578 2.47656C56.5234 2.57031 55.0547 2.66406 53.3516 2.75781C51.6641 2.83594 49.8359 2.875 47.8672 2.875C46.9297 2.875 45.9688 2.86719 44.9844 2.85156C44.0156 2.82031 43.0234 2.77344 42.0078 2.71094L41.3984 16.1406C41.8203 16 42.3359 15.8438 42.9453 15.6719C43.5547 15.5 44.25 15.3438 45.0312 15.2031C45.8125 15.0625 46.6719 14.9453 47.6094 14.8516C48.5469 14.7578 49.5547 14.7109 50.6328 14.7109C52.6016 14.7109 54.4766 14.9141 56.2578 15.3203C58.0391 15.7109 59.6016 16.3359 60.9453 17.1953C62.2891 18.0391 63.3516 19.125 64.1328 20.4531C64.9297 21.7656 65.3281 23.3359 65.3281 25.1641ZM80.4219 34.4453C80.25 34.7422 80 34.8906 79.6719 34.8906C79.4062 34.8906 79.1875 34.7969 79.0156 34.6094C78.8594 34.4219 78.7812 34.2188 78.7812 34C78.7812 33.8594 78.8047 33.7422 78.8516 33.6484C78.8984 33.5547 78.9453 33.4688 78.9922 33.3906L98.0469 0.765625C98.125 0.625 98.2344 0.515625 98.375 0.4375C98.5312 0.359375 98.6797 0.320312 98.8203 0.320312C99.0859 0.320312 99.2969 0.414062 99.4531 0.601562C99.6094 0.789062 99.6875 0.992188 99.6875 1.21094C99.6875 1.32031 99.6562 1.4375 99.5938 1.5625C99.5469 1.6875 99.5 1.78906 99.4531 1.86719L80.4219 34.4453Z" fill="#9DB97E" fill-opacity="0.9"/>
</svg>
