<svg width="66" height="66" viewBox="0 0 66 66" fill="none" xmlns="http://www.w3.org/2000/svg">
<path d="M63 33C58.8576 28.8576 53.436 26.7936 48 26.7936C51.8372 22.9564 54.2064 17.6512 54.2064 11.7936C48.3488 11.7936 43.0436 14.1628 39.2064 18C39.2064 12.5785 37.1424 7.14244 33 3C28.8576 7.14244 26.7936 12.564 26.7936 18C22.9564 14.1628 17.6512 11.7936 11.7936 11.7936C11.7936 17.6512 14.1628 22.9564 18 26.7936C12.5785 26.7936 7.14244 28.8576 3 33C7.14244 37.1424 12.564 39.2064 18 39.2064C14.1628 43.0436 11.7936 48.3488 11.7936 54.2064C17.6512 54.2064 22.9564 51.8372 26.7936 48C26.7936 53.436 28.8576 58.8576 33 63C37.1424 58.8576 39.2064 53.436 39.2064 48C43.0436 51.8372 48.3488 54.2064 54.2064 54.2064C54.2064 48.3488 51.8372 43.0436 48 39.2064C53.436 39.2209 58.8576 37.1424 63 33Z" stroke="#B7CCA2" stroke-width="3"/>
</svg>
