<svg width="65" height="64" viewBox="0 0 65 64" fill="none" xmlns="http://www.w3.org/2000/svg">
<path d="M41.3419 25.8663L33.2647 31.2277L38.6247 23.1634C43.6433 15.604 40.4807 4.67327 32.5074 2C24.5193 4.68812 21.3567 15.6188 26.3753 23.1634L31.7353 31.2277L23.673 25.8663C16.1154 20.8465 5.18745 24.0099 2.5 32C5.18745 39.9901 16.1154 43.1535 23.6581 38.1337L31.7205 32.7723L26.3604 40.8366C21.3567 48.396 24.5193 59.3267 32.5074 62C40.4955 59.3119 43.6581 48.3812 38.6396 40.8366L33.2795 32.7723L41.3419 38.1337C48.8994 43.1535 59.8125 39.9901 62.5 32C59.8125 24.0099 48.8994 20.8465 41.3419 25.8663Z" stroke="#B7CCA2" stroke-width="3"/>
</svg>
