<svg width="66" height="66" viewBox="0 0 66 66" fill="none" xmlns="http://www.w3.org/2000/svg">
<path d="M33.0077 33C41.2928 24.7171 41.2928 11.2829 33.0077 3C24.7227 11.2985 24.7227 24.7171 33.0077 33ZM33.0077 33C24.7227 41.2829 24.7227 54.7171 33.0077 63C41.2928 54.7171 41.2928 41.2829 33.0077 33ZM33.0077 33C24.7227 24.7171 11.2849 24.7164 2.99988 32.9993C11.2849 41.2822 24.7227 41.2829 33.0077 33ZM62.9999 32.9993C54.7149 24.7164 41.2771 24.7164 32.9921 32.9993C41.2928 41.2822 54.7149 41.2822 62.9999 32.9993Z" stroke="#B7CCA2" stroke-width="3"/>
<path d="M33.0077 33C41.2928 24.7171 41.2928 11.2829 33.0077 3C24.7227 11.2985 24.7227 24.7171 33.0077 33Z" stroke="#B7CCA2" stroke-width="3"/>
<path d="M33.0077 33C24.7227 41.2829 24.7227 54.7171 33.0077 63C41.2928 54.7171 41.2928 41.2829 33.0077 33Z" stroke="#B7CCA2" stroke-width="3"/>
<path d="M62.9999 32.9993C54.7149 24.7164 41.2771 24.7164 32.9921 32.9993C41.2928 41.2822 54.7149 41.2822 62.9999 32.9993Z" stroke="#B7CCA2" stroke-width="3"/>
<path d="M33.0077 32.9993C24.7227 24.7164 11.2849 24.7164 2.99988 32.9993C11.2849 41.2822 24.7227 41.2822 33.0077 32.9993Z" stroke="#B7CCA2" stroke-width="3"/>
</svg>
