<svg width="190" height="103" viewBox="0 0 190 103" fill="none" xmlns="http://www.w3.org/2000/svg">
<path d="M168.08 79.9073C172.084 78.5788 177.156 78.5384 180.891 76.3519C181.94 75.7377 182 66.8785 182 65.8083C182 62.7707 180.173 71.6202 178.92 74.3903C177.306 77.9609 176.104 79.1174 175.84 74.3903C175.365 65.8701 165.38 60.0461 157.855 60.0461C149.534 60.0461 145.68 63.3709 142.826 71.0801C141.678 74.1809 143.466 80.0028 146.768 76.3519C149.8 72.9986 152.001 65.6323 153.42 61.3947C157.198 50.1134 161.257 39.4599 158.964 27.1894C154.875 5.31929 131.178 15.1528 123.731 29.151C120.765 34.7281 121.801 35.2334 117.941 30.2544C113.193 24.1283 108.987 18.1312 102.666 13.4582C96.2189 8.69188 82.9774 4.99203 76.057 11.4966C60.0218 26.5681 72.0312 49.9638 82.9556 64.4597C90.033 73.851 97.5841 78.9822 107.717 84.3209C112.864 87.033 122.623 88.5728 122.623 79.9073C122.623 61.8145 75.7188 69.9413 66.0786 71.5705C45.7221 75.0107 25.9116 83.5999 8 95" stroke="#9DB97E" stroke-width="2" stroke-linecap="round"/>
</svg>
