<svg width="98" height="40" viewBox="0 0 98 40" fill="none" xmlns="http://www.w3.org/2000/svg">
<path d="M9.99811 32C9.30987 32 8.79924 31.9091 8.46623 31.7273C8.15541 31.5227 8 31.2386 8 30.875V9.125C8 8.76136 8.15541 8.48864 8.46623 8.30682C8.79924 8.10227 9.30987 8 9.99811 8H11.1637C11.8741 8 12.3847 8.10227 12.6956 8.30682C13.0064 8.48864 13.1618 8.76136 13.1618 9.125V30.875C13.1618 31.2386 13.0064 31.5227 12.6956 31.7273C12.3847 31.9091 11.8741 32 11.1637 32H9.99811Z" fill="#101010"/>
<path d="M19.4293 32C18.7411 32 18.2304 31.9091 17.8974 31.7273C17.5866 31.5227 17.4312 31.2386 17.4312 30.875V9.125C17.4312 8.76136 17.5866 8.48864 17.8974 8.30682C18.2304 8.10227 18.7411 8 19.4293 8H20.5616C20.9612 8 21.2942 8.03409 21.5606 8.10227C21.8492 8.14773 22.1045 8.25 22.3265 8.40909C22.5708 8.56818 22.8039 8.81818 23.0259 9.15909L30.9184 20.9205C31.1626 21.2614 31.3957 21.6477 31.6178 22.0795C31.8398 22.5114 32.0507 22.9091 32.2505 23.2727L32.3837 23.2386C32.3615 22.8523 32.3282 22.4432 32.2838 22.0114C32.2616 21.5568 32.2505 21.0795 32.2505 20.5795V9.125C32.2505 8.76136 32.4059 8.48864 32.7167 8.30682C33.0497 8.10227 33.5604 8 34.2486 8H35.0478C35.7583 8 36.2689 8.10227 36.5797 8.30682C36.8905 8.48864 37.046 8.76136 37.046 9.125V30.875C37.046 31.2386 36.8905 31.5227 36.5797 31.7273C36.2689 31.9091 35.7583 32 35.0478 32H33.9156C33.5826 32 33.2828 31.9773 33.0164 31.9318C32.75 31.8864 32.5058 31.8068 32.2838 31.6932C32.084 31.5568 31.8953 31.3523 31.7177 31.0795L23.5587 18.9091C23.3367 18.5682 23.1036 18.1818 22.8594 17.75C22.6374 17.3182 22.4265 16.9205 22.2266 16.5568L22.0934 16.5909C22.1378 16.9773 22.1711 17.3977 22.1933 17.8523C22.2155 18.2841 22.2266 18.75 22.2266 19.25V30.875C22.2266 31.2386 22.0712 31.5227 21.7604 31.7273C21.4496 31.9091 20.939 32 20.2285 32H19.4293Z" fill="#101010"/>
<path d="M41.9663 32C41.2781 32 40.7674 31.9091 40.4344 31.7273C40.1236 31.5455 39.9682 31.2727 39.9682 30.9091V27.7727C39.9682 27.4091 40.1236 27.1364 40.4344 26.9545C40.7674 26.7727 41.2781 26.6818 41.9663 26.6818H43.032C43.7424 26.6818 44.253 26.7727 44.5638 26.9545C44.8747 27.1364 45.0301 27.4091 45.0301 27.7727V30.9091C45.0301 31.2727 44.8747 31.5455 44.5638 31.7273C44.253 31.9091 43.7424 32 43.032 32H41.9663Z" fill="#101010"/>
<path d="M49.9668 32C49.2786 32 48.7679 31.9091 48.4349 31.7273C48.1241 31.5227 47.9687 31.2386 47.9687 30.875V9.43182C47.9687 8.52273 48.3794 8.06818 49.2009 8.06818H59.8907C60.5346 8.06818 60.8565 8.63636 60.8565 9.77273V10.8295C60.8565 11.9659 60.5346 12.5341 59.8907 12.5341H53.1305V18.5H59.591C60.2349 18.5 60.5568 19.0682 60.5568 20.2045V21.2614C60.5568 22.3977 60.2349 22.9659 59.591 22.9659H53.1305V30.875C53.1305 31.2386 52.9751 31.5227 52.6642 31.7273C52.3534 31.9091 51.8428 32 51.1324 32H49.9668Z" fill="#101010"/>
<path d="M66.7153 32C66.027 32 65.5164 31.9091 65.1834 31.7273C64.8726 31.5227 64.7172 31.2386 64.7172 30.875V9.125C64.7172 8.76136 64.8726 8.48864 65.1834 8.30682C65.5164 8.10227 66.027 8 66.7153 8H67.8808C68.5913 8 69.1019 8.10227 69.4127 8.30682C69.7235 8.48864 69.8789 8.76136 69.8789 9.125V30.875C69.8789 31.2386 69.7235 31.5227 69.4127 31.7273C69.1019 31.9091 68.5913 32 67.8808 32H66.7153Z" fill="#101010"/>
<path d="M80.5423 32C79.854 32 79.3434 31.9091 79.0104 31.7273C78.6996 31.5455 78.5442 31.2727 78.5442 30.9091V12.5341H73.2492C72.5832 12.5341 72.2501 11.9659 72.2501 10.8295V9.77273C72.2501 8.63636 72.5832 8.06818 73.2492 8.06818H89.001C89.667 8.06818 90 8.63636 90 9.77273V10.8295C90 11.9659 89.667 12.5341 89.001 12.5341H83.706V30.9091C83.706 31.2727 83.5506 31.5455 83.2397 31.7273C82.9289 31.9091 82.4183 32 81.7079 32H80.5423Z" fill="#101010"/>
<path d="M80.5423 31.9998C79.854 31.9998 79.3434 31.9089 79.0104 31.7271C78.6996 31.5453 78.5442 31.2726 78.5442 30.9089V12.5342H73.2492C72.5831 12.5342 72.2501 11.966 72.2501 10.8297V9.77288C72.2501 8.63653 72.5831 8.06836 73.2492 8.06836H89.0009C89.667 8.06836 90 8.63653 90 9.77288V10.8297C90 11.966 89.667 12.5342 89.0009 12.5342H83.7059V30.9089C83.7059 31.2726 83.5505 31.5453 83.2397 31.7271C82.9289 31.9089 82.4183 31.9998 81.7078 31.9998H80.5423Z" fill="#101010"/>
<path d="M66.7153 31.9996C66.027 31.9996 65.5164 31.9087 65.1834 31.7269C64.8726 31.5224 64.7172 31.2383 64.7172 30.8747V9.12498C64.7172 8.76135 64.8726 8.48863 65.1834 8.30681C65.5164 8.10227 66.027 8 66.7153 8H67.8808C68.5913 8 69.1019 8.10227 69.4127 8.30681C69.7235 8.48863 69.8789 8.76135 69.8789 9.12498V30.8747C69.8789 31.2383 69.7235 31.5224 69.4127 31.7269C69.1019 31.9087 68.5913 31.9996 67.8808 31.9996H66.7153Z" fill="#101010"/>
<path d="M49.9668 31.9998C49.2786 31.9998 48.7679 31.9089 48.4349 31.7271C48.1241 31.5226 47.9687 31.2385 47.9687 30.8748V9.43198C47.9687 8.5229 48.3794 8.06836 49.2009 8.06836H59.8907C60.5346 8.06836 60.8565 8.63653 60.8565 9.77288V10.8297C60.8565 11.966 60.5346 12.5342 59.8907 12.5342H53.1305V18.5H59.591C60.2349 18.5 60.5568 19.0682 60.5568 20.2045V21.2613C60.5568 22.3977 60.2349 22.9659 59.591 22.9659H53.1305V30.8748C53.1305 31.2385 52.9751 31.5226 52.6642 31.7271C52.3534 31.9089 51.8428 31.9998 51.1324 31.9998H49.9668Z" fill="#101010"/>
<path d="M41.9663 31.9997C41.2781 31.9997 40.7674 31.9088 40.4344 31.727C40.1236 31.5452 39.9682 31.2725 39.9682 30.9088V27.7725C39.9682 27.4089 40.1236 27.1362 40.4344 26.9544C40.7674 26.7725 41.2781 26.6816 41.9663 26.6816H43.032C43.7424 26.6816 44.253 26.7725 44.5638 26.9544C44.8747 27.1362 45.0301 27.4089 45.0301 27.7725V30.9088C45.0301 31.2725 44.8747 31.5452 44.5638 31.727C44.253 31.9088 43.7424 31.9997 43.032 31.9997H41.9663Z" fill="#101010"/>
<path d="M19.4293 31.9996C18.741 31.9996 18.2304 31.9087 17.8974 31.7269C17.5866 31.5224 17.4312 31.2383 17.4312 30.8747V9.12498C17.4312 8.76135 17.5866 8.48863 17.8974 8.30681C18.2304 8.10227 18.741 8 19.4293 8H20.5615C20.9611 8 21.2942 8.03409 21.5606 8.10227C21.8492 8.14773 22.1045 8.25 22.3265 8.40908C22.5707 8.56817 22.8038 8.81817 23.0259 9.15907L30.9184 20.9203C31.1626 21.2612 31.3957 21.6475 31.6177 22.0793C31.8397 22.5111 32.0506 22.9089 32.2505 23.2725L32.3837 23.2384C32.3615 22.852 32.3282 22.443 32.2838 22.0112C32.2616 21.5566 32.2505 21.0793 32.2505 20.5794V9.12498C32.2505 8.76135 32.4059 8.48863 32.7167 8.30681C33.0497 8.10227 33.5603 8 34.2486 8H35.0478C35.7582 8 36.2689 8.10227 36.5797 8.30681C36.8905 8.48863 37.0459 8.76135 37.0459 9.12498V30.8747C37.0459 31.2383 36.8905 31.5224 36.5797 31.7269C36.2689 31.9087 35.7582 31.9996 35.0478 31.9996H33.9156C33.5825 31.9996 33.2828 31.9769 33.0164 31.9315C32.75 31.886 32.5058 31.8065 32.2838 31.6928C32.084 31.5565 31.8952 31.3519 31.7176 31.0792L23.5587 18.9089C23.3367 18.568 23.1036 18.1817 22.8593 17.7499C22.6373 17.318 22.4264 16.9203 22.2266 16.5567L22.0934 16.5908C22.1378 16.9771 22.1711 17.3976 22.1933 17.8521C22.2155 18.2839 22.2266 18.7498 22.2266 19.2498V30.8747C22.2266 31.2383 22.0712 31.5224 21.7604 31.7269C21.4496 31.9087 20.9389 31.9996 20.2285 31.9996H19.4293Z" fill="#101010"/>
<path d="M9.99811 31.9996C9.30987 31.9996 8.79924 31.9087 8.46623 31.7269C8.15541 31.5224 8 31.2383 8 30.8747V9.12498C8 8.76135 8.15541 8.48863 8.46623 8.30681C8.79924 8.10227 9.30987 8 9.99811 8H11.1637C11.8741 8 12.3847 8.10227 12.6956 8.30681C13.0064 8.48863 13.1618 8.76135 13.1618 9.12498V30.8747C13.1618 31.2383 13.0064 31.5224 12.6956 31.7269C12.3847 31.9087 11.8741 31.9996 11.1637 31.9996H9.99811Z" fill="#101010"/>
</svg>
