<svg width="36" height="36" viewBox="0 0 36 36" fill="none" xmlns="http://www.w3.org/2000/svg">
<path d="M18 6C14.8181 6 11.7638 7.26506 9.51562 9.51469C7.2652 11.7652 6.00064 14.8173 6 18C6 21.1813 7.26562 24.2357 9.51562 26.4853C11.7638 28.7349 14.8181 30 18 30C21.1819 30 24.2362 28.7349 26.4844 26.4853C28.7344 24.2357 30 21.1813 30 18C30 14.8187 28.7344 11.7643 26.4844 9.51469C24.2362 7.26506 21.1819 6 18 6Z" fill="url(#paint0_linear_2001_396)"/>
<path d="M11.4318 17.873C14.9306 16.349 17.2631 15.3443 18.4293 14.8588C21.7631 13.4726 22.455 13.2319 22.9068 13.2237C23.0062 13.2221 23.2275 13.2467 23.3718 13.3634C23.4918 13.4618 23.5256 13.595 23.5425 13.6884C23.5575 13.7818 23.5781 13.9946 23.5612 14.1607C23.3812 16.0582 22.5993 20.6629 22.2018 22.7882C22.035 23.6874 21.7031 23.9889 21.3825 24.0184C20.685 24.0825 20.1562 23.5579 19.4812 23.1155C18.4256 22.4231 17.8293 21.9922 16.8037 21.3167C15.6187 20.5359 16.3875 20.1067 17.0625 19.4055C17.2387 19.2219 20.31 16.4291 20.3681 16.1758C20.3756 16.1441 20.3831 16.026 20.3118 15.9637C20.2425 15.9013 20.1393 15.9227 20.0643 15.9395C19.9575 15.9635 18.2718 17.0788 15.0018 19.2851C14.5237 19.614 14.0906 19.7743 13.7006 19.7659C13.2731 19.7567 12.4481 19.5236 11.835 19.3245C11.085 19.0802 10.4868 18.951 10.5393 18.536C10.5656 18.32 10.8637 18.099 11.4318 17.873Z" fill="white"/>
<circle opacity="0.2" cx="18" cy="18" r="17" stroke="#2AABEE" stroke-width="2"/>
<defs>
<linearGradient id="paint0_linear_2001_396" x1="1206" y1="6" x2="1206" y2="2406" gradientUnits="userSpaceOnUse">
<stop stop-color="#2AABEE"/>
<stop offset="1" stop-color="#229ED9"/>
</linearGradient>
</defs>
</svg>
